<svg xmlns="http://www.w3.org/2000/svg" viewBox="0 0 3200 1800" width="3200" height="1800">
  <defs>
    <filter id="card-glow" x="-8%" y="-8%" width="116%" height="116%">
      <feDropShadow dx="0" dy="0" stdDeviation="6" flood-color="#ec4899" flood-opacity="0.55"/>
    </filter>
    <filter id="title-glow" x="-5%" y="-5%" width="110%" height="110%">
      <feDropShadow dx="0" dy="0" stdDeviation="4" flood-color="#ffffff" flood-opacity="0.35"/>
    </filter>
    <filter id="outcome-glow" x="-25%" y="-25%" width="150%" height="150%">
      <feDropShadow dx="0" dy="0" stdDeviation="18" flood-color="#ec4899" flood-opacity="1"/>
    </filter>
    <filter id="citacious-glow" x="-3%" y="-10%" width="106%" height="120%">
      <feDropShadow dx="0" dy="0" stdDeviation="10" flood-color="#ec4899" flood-opacity="0.7"/>
    </filter>
    <pattern id="grid" width="60" height="60" patternUnits="userSpaceOnUse">
      <path d="M60 0L0 0 0 60" fill="none" stroke="#ec4899" stroke-width="0.3" opacity="0.1"/>
    </pattern>
    <linearGradient id="phase-bg" x1="0" y1="0" x2="0" y2="1">
      <stop offset="0%" stop-color="#1c1c1f"/>
      <stop offset="100%" stop-color="#18181b"/>
    </linearGradient>
    <linearGradient id="cit-grad" x1="0" y1="0" x2="1" y2="0">
      <stop offset="0%" stop-color="#be185d" stop-opacity="0.7"/>
      <stop offset="50%" stop-color="#ec4899" stop-opacity="0.9"/>
      <stop offset="100%" stop-color="#be185d" stop-opacity="0.7"/>
    </linearGradient>
    <radialGradient id="bg-glow" cx="50%" cy="50%" r="55%">
      <stop offset="0%" stop-color="#ec4899" stop-opacity="0.04"/>
      <stop offset="100%" stop-color="#09090b" stop-opacity="0"/>
    </radialGradient>
    <radialGradient id="outcome-fill" cx="50%" cy="50%" r="50%">
      <stop offset="0%" stop-color="#3d0520"/>
      <stop offset="100%" stop-color="#1a0a12"/>
    </radialGradient>
  </defs>

  <!-- Background -->
  <rect width="3200" height="1800" fill="#09090b"/>
  <rect width="3200" height="1800" fill="url(#grid)"/>
  <rect width="3200" height="1800" fill="url(#bg-glow)"/>

  <!-- Background node network (subtle) -->
  <g opacity="0.07" stroke="#ec4899" stroke-width="0.6" fill="#ec4899">
    <circle cx="180" cy="300" r="2"/><circle cx="420" cy="180" r="1.5"/><circle cx="650" cy="380" r="2"/>
    <circle cx="900" cy="200" r="1.5"/><circle cx="1100" cy="340" r="2"/><circle cx="1350" cy="160" r="1.5"/>
    <circle cx="1600" cy="300" r="2"/><circle cx="1850" cy="180" r="1.5"/><circle cx="2050" cy="360" r="2"/>
    <circle cx="2300" cy="200" r="1.5"/><circle cx="2550" cy="340" r="2"/><circle cx="2800" cy="160" r="1.5"/>
    <circle cx="3050" cy="280" r="2"/>
    <line x1="180" y1="300" x2="420" y2="180"/><line x1="420" y1="180" x2="650" y2="380"/>
    <line x1="650" y1="380" x2="900" y2="200"/><line x1="900" y1="200" x2="1100" y2="340"/>
    <line x1="1100" y1="340" x2="1350" y2="160"/><line x1="1350" y1="160" x2="1600" y2="300"/>
    <line x1="1600" y1="300" x2="1850" y2="180"/><line x1="1850" y1="180" x2="2050" y2="360"/>
    <line x1="2050" y1="360" x2="2300" y2="200"/><line x1="2300" y1="200" x2="2550" y2="340"/>
    <line x1="2550" y1="340" x2="2800" y2="160"/><line x1="2800" y1="160" x2="3050" y2="280"/>
  </g>

  <!-- ═══ TITLE ═══ -->
  <text x="1600" y="68" text-anchor="middle" font-family="'Outfit','Inter',system-ui,sans-serif" font-size="54" font-weight="800" fill="#ffffff" letter-spacing="7" filter="url(#title-glow)">THE AUSPEXI GEO WORKFLOW</text>
  <text x="1600" y="106" text-anchor="middle" font-family="'Outfit','Inter',system-ui,sans-serif" font-size="21" font-weight="400" fill="#ec4899" letter-spacing="3">From Invisible to Deterministic AI Citation</text>
  <line x1="1250" y1="120" x2="1950" y2="120" stroke="#ec4899" stroke-width="1" opacity="0.35"/>

  <!-- ═══════════════════════════════════════════════
       PHASE 1 — AUDIT  x=40 w=620
  ═══════════════════════════════════════════════ -->
  <rect x="40" y="135" width="620" height="1285" rx="16" fill="url(#phase-bg)" stroke="#ffffff" stroke-width="1.5" filter="url(#card-glow)"/>
  <rect x="37" y="132" width="626" height="1291" rx="18" fill="none" stroke="#ec4899" stroke-width="2.5" opacity="0.7"/>

  <!-- Phase 1 header -->
  <rect x="40" y="135" width="620" height="118" rx="16" fill="#1e1e21"/>
  <rect x="40" y="223" width="620" height="30" fill="#1e1e21"/>
  <text x="72" y="185" font-family="'Outfit','Inter',system-ui,sans-serif" font-size="50" font-weight="800" fill="#ec4899" opacity="0.25">01</text>
  <!-- Radar icon -->
  <g transform="translate(548,177)">
    <circle cx="0" cy="0" r="30" fill="none" stroke="#ec4899" stroke-width="1" opacity="0.25"/>
    <circle cx="0" cy="0" r="20" fill="none" stroke="#ec4899" stroke-width="1.5" opacity="0.5"/>
    <circle cx="0" cy="0" r="10" fill="none" stroke="#ec4899" stroke-width="2" opacity="0.8"/>
    <circle cx="0" cy="0" r="3.5" fill="#ec4899"/>
    <line x1="0" y1="0" x2="24" y2="-14" stroke="#ec4899" stroke-width="2.5" opacity="0.8"/>
    <circle cx="20" cy="-8" r="3" fill="#ec4899" opacity="0.9"/>
    <circle cx="-14" cy="17" r="2" fill="#ec4899" opacity="0.4"/>
  </g>
  <text x="72" y="222" font-family="'Outfit','Inter',system-ui,sans-serif" font-size="19" font-weight="700" fill="#ffffff" letter-spacing="0.5">AUDIT: Establish Your Baseline</text>
  <line x1="60" y1="268" x2="640" y2="268" stroke="#ec4899" stroke-width="0.8" opacity="0.25"/>

  <!-- Card 1: AI SOV Overview  y=278 h=500 -->
  <rect x="60" y="278" width="580" height="500" rx="12" fill="#1c1c1f" stroke="#ffffff" stroke-width="1.5" filter="url(#card-glow)"/>
  <rect x="57" y="275" width="586" height="506" rx="14" fill="none" stroke="#ec4899" stroke-width="2.5" opacity="0.65"/>
  <rect x="60" y="278" width="580" height="46" rx="12" fill="#252528"/>
  <rect x="60" y="304" width="580" height="20" fill="#252528"/>
  <circle cx="85" cy="302" r="8" fill="#ec4899" opacity="0.85"/><circle cx="85" cy="302" r="4" fill="#ffffff"/>
  <text x="103" y="308" font-family="'Outfit','Inter',system-ui,sans-serif" font-size="17" font-weight="700" fill="#ffffff">AI SOV Overview</text>
  <text x="78" y="350" font-family="'Inter',system-ui,sans-serif" font-size="13" fill="#a1a1aa">Run your first GEO audit. Measure Share of Voice</text>
  <text x="78" y="367" font-family="'Inter',system-ui,sans-serif" font-size="13" fill="#a1a1aa">across ChatGPT, Claude, Gemini and Perplexity.</text>
  <text x="78" y="384" font-family="'Inter',system-ui,sans-serif" font-size="13" fill="#a1a1aa">Z-score drift detection reveals brand perception gaps.</text>
  <!-- Z-Score chart -->
  <rect x="78" y="400" width="544" height="130" rx="8" fill="#0d0d0f"/>
  <rect x="78" y="400" width="544" height="130" rx="8" fill="none" stroke="#3f3f46" stroke-width="1"/>
  <text x="90" y="417" font-family="'Inter',system-ui,sans-serif" font-size="10" fill="#52525b" letter-spacing="1.5">Z-SCORE SOV DRIFT INDEX</text>
  <line x1="78" y1="450" x2="622" y2="450" stroke="#3f3f46" stroke-width="0.5" opacity="0.6"/>
  <line x1="78" y1="470" x2="622" y2="470" stroke="#3f3f46" stroke-width="0.5" opacity="0.4"/>
  <line x1="78" y1="490" x2="622" y2="490" stroke="#3f3f46" stroke-width="0.5" opacity="0.4"/>
  <polyline points="90,502 128,488 166,495 204,472 242,480 280,458 318,466 356,444 394,452 432,432 470,440 508,422 546,430 584,412 614,418" fill="none" stroke="#ec4899" stroke-width="2.5" stroke-linejoin="round" stroke-linecap="round"/>
  <circle cx="394" cy="452" r="5" fill="#ec4899"/>
  <text x="390" y="442" font-family="'Inter',system-ui,sans-serif" font-size="10" fill="#ec4899">−2.3σ</text>
  <!-- Platform bars -->
  <text x="78" y="555" font-family="'Inter',system-ui,sans-serif" font-size="10" fill="#52525b" letter-spacing="1.5">PLATFORM SOV %</text>
  <rect x="78" y="562" width="80" height="14" rx="3" fill="#3f3f46"/><rect x="78" y="562" width="46" height="14" rx="3" fill="#ec4899" opacity="0.7"/>
  <text x="166" y="574" font-family="'Inter',system-ui,sans-serif" font-size="11" fill="#a1a1aa">ChatGPT 18%</text>
  <rect x="78" y="582" width="80" height="14" rx="3" fill="#3f3f46"/><rect x="78" y="582" width="34" height="14" rx="3" fill="#ec4899" opacity="0.5"/>
  <text x="166" y="594" font-family="'Inter',system-ui,sans-serif" font-size="11" fill="#a1a1aa">Gemini 13%</text>
  <rect x="78" y="602" width="80" height="14" rx="3" fill="#3f3f46"/><rect x="78" y="602" width="58" height="14" rx="3" fill="#ec4899" opacity="0.9"/>
  <text x="166" y="614" font-family="'Inter',system-ui,sans-serif" font-size="11" fill="#a1a1aa">Claude 22%</text>
  <rect x="78" y="622" width="80" height="14" rx="3" fill="#3f3f46"/><rect x="78" y="622" width="26" height="14" rx="3" fill="#ec4899" opacity="0.4"/>
  <text x="166" y="634" font-family="'Inter',system-ui,sans-serif" font-size="11" fill="#a1a1aa">Perplexity 10%</text>
  <rect x="78" y="648" width="280" height="24" rx="6" fill="#ec4899" opacity="0.08"/>
  <rect x="78" y="648" width="280" height="24" rx="6" fill="none" stroke="#ec4899" stroke-width="1" opacity="0.4"/>
  <text x="90" y="664" font-family="'Inter',system-ui,sans-serif" font-size="11" font-weight="600" fill="#ec4899">⚡ DRIFT ANOMALY DETECTED — AUDIT NOW</text>

  <!-- Arrow between cards -->
  <line x1="350" y1="780" x2="350" y2="808" stroke="#ec4899" stroke-width="2" opacity="0.6"/>
  <polygon points="344,806 350,820 356,806" fill="#ec4899" opacity="0.7"/>

  <!-- Card 2: Competitor Radar  y=828 h=480 -->
  <rect x="60" y="828" width="580" height="480" rx="12" fill="#1c1c1f" stroke="#ffffff" stroke-width="1.5" filter="url(#card-glow)"/>
  <rect x="57" y="825" width="586" height="486" rx="14" fill="none" stroke="#ec4899" stroke-width="2.5" opacity="0.65"/>
  <rect x="60" y="828" width="580" height="46" rx="12" fill="#252528"/>
  <rect x="60" y="854" width="580" height="20" fill="#252528"/>
  <circle cx="85" cy="852" r="8" fill="#be185d" opacity="0.85"/><circle cx="85" cy="852" r="4" fill="#ffffff"/>
  <text x="103" y="858" font-family="'Outfit','Inter',system-ui,sans-serif" font-size="17" font-weight="700" fill="#ffffff">Competitor Radar</text>
  <text x="78" y="900" font-family="'Inter',system-ui,sans-serif" font-size="13" fill="#a1a1aa">Identify competitor data decaying inside LLM training</text>
  <text x="78" y="917" font-family="'Inter',system-ui,sans-serif" font-size="13" fill="#a1a1aa">sets. Locate the semantic gaps you can engineer into</text>
  <text x="78" y="934" font-family="'Inter',system-ui,sans-serif" font-size="13" fill="#a1a1aa">and replace with your high-entropy authority signals.</text>
  <!-- Decay matrix -->
  <rect x="78" y="950" width="544" height="180" rx="8" fill="#0d0d0f"/>
  <rect x="78" y="950" width="544" height="180" rx="8" fill="none" stroke="#3f3f46" stroke-width="1"/>
  <text x="90" y="967" font-family="'Inter',system-ui,sans-serif" font-size="10" fill="#52525b" letter-spacing="1.5">COMPETITOR CITATION DECAY MATRIX</text>
  <text x="90" y="990" font-family="'Inter',system-ui,sans-serif" font-size="11" fill="#71717a">Competitor A</text>
  <rect x="185" y="978" width="380" height="14" rx="3" fill="#27272a"/><rect x="185" y="978" width="323" height="14" rx="3" fill="#be185d" opacity="0.4"/>
  <text x="574" y="990" font-family="'Inter',system-ui,sans-serif" font-size="10" fill="#ec4899">−14%</text>
  <text x="90" y="1012" font-family="'Inter',system-ui,sans-serif" font-size="11" fill="#71717a">Competitor B</text>
  <rect x="185" y="1000" width="380" height="14" rx="3" fill="#27272a"/><rect x="185" y="1000" width="247" height="14" rx="3" fill="#be185d" opacity="0.3"/>
  <text x="574" y="1012" font-family="'Inter',system-ui,sans-serif" font-size="10" fill="#ec4899">−22%</text>
  <text x="90" y="1034" font-family="'Inter',system-ui,sans-serif" font-size="11" fill="#71717a">Competitor C</text>
  <rect x="185" y="1022" width="380" height="14" rx="3" fill="#27272a"/><rect x="185" y="1022" width="361" height="14" rx="3" fill="#be185d" opacity="0.5"/>
  <text x="574" y="1034" font-family="'Inter',system-ui,sans-serif" font-size="10" fill="#ec4899">−6%</text>
  <text x="90" y="1056" font-family="'Inter',system-ui,sans-serif" font-size="11" fill="#a1a1aa" font-weight="600">Your Brand</text>
  <rect x="185" y="1044" width="380" height="14" rx="3" fill="#27272a"/><rect x="185" y="1044" width="76" height="14" rx="3" fill="#ec4899" opacity="0.35"/>
  <text x="574" y="1056" font-family="'Inter',system-ui,sans-serif" font-size="10" fill="#6b7280">baseline</text>
  <rect x="90" y="1073" width="260" height="44" rx="6" fill="#ec4899" opacity="0.08"/>
  <rect x="90" y="1073" width="260" height="44" rx="6" fill="none" stroke="#ec4899" stroke-width="1" opacity="0.4"/>
  <text x="102" y="1092" font-family="'Inter',system-ui,sans-serif" font-size="11" font-weight="700" fill="#ec4899">↑ OPPORTUNITY GAP DETECTED</text>
  <text x="102" y="1108" font-family="'Inter',system-ui,sans-serif" font-size="11" fill="#a1a1aa">3 semantic voids ready to capture</text>

  <!-- ═══════════════════════════════════════════════
       PHASE 2 — BUILD  x=700 w=620
  ═══════════════════════════════════════════════ -->
  <rect x="700" y="135" width="620" height="1285" rx="16" fill="url(#phase-bg)" stroke="#ffffff" stroke-width="1.5" filter="url(#card-glow)"/>
  <rect x="697" y="132" width="626" height="1291" rx="18" fill="none" stroke="#ec4899" stroke-width="2.5" opacity="0.7"/>
  <rect x="700" y="135" width="620" height="118" rx="16" fill="#1e1e21"/>
  <rect x="700" y="223" width="620" height="30" fill="#1e1e21"/>
  <text x="732" y="185" font-family="'Outfit','Inter',system-ui,sans-serif" font-size="50" font-weight="800" fill="#ec4899" opacity="0.25">02</text>
  <!-- Vault + Shield icon -->
  <g transform="translate(1190,177)">
    <ellipse cx="0" cy="-18" rx="22" ry="7" fill="none" stroke="#ec4899" stroke-width="2"/>
    <line x1="-22" y1="-18" x2="-22" y2="12"/><line x1="22" y1="-18" x2="22" y2="12" stroke="#ec4899" stroke-width="2"/>
    <ellipse cx="0" cy="12" rx="22" ry="7" fill="none" stroke="#ec4899" stroke-width="2"/>
    <path d="M0,-30 L18,-24 L18,-8 Q18,8 0,16 Q-18,8 -18,-8 L-18,-24 Z" fill="#ec4899" opacity="0.12" stroke="#ec4899" stroke-width="1.5"/>
    <path d="M-7,-14 L-2,-8 L9,-20" fill="none" stroke="#ffffff" stroke-width="2.5" stroke-linecap="round" stroke-linejoin="round"/>
  </g>
  <text x="732" y="222" font-family="'Outfit','Inter',system-ui,sans-serif" font-size="19" font-weight="700" fill="#ffffff" letter-spacing="0.5">BUILD: Engineer Your Data Moat</text>
  <line x1="720" y1="268" x2="1300" y2="268" stroke="#ec4899" stroke-width="0.8" opacity="0.25"/>

  <!-- Card: Fact-Vault  y=278 h=310 -->
  <rect x="720" y="278" width="580" height="310" rx="12" fill="#1c1c1f" stroke="#ffffff" stroke-width="1.5" filter="url(#card-glow)"/>
  <rect x="717" y="275" width="586" height="316" rx="14" fill="none" stroke="#ec4899" stroke-width="2.5" opacity="0.65"/>
  <rect x="720" y="278" width="580" height="46" rx="12" fill="#252528"/>
  <rect x="720" y="304" width="580" height="20" fill="#252528"/>
  <circle cx="745" cy="302" r="8" fill="#ec4899" opacity="0.85"/><circle cx="745" cy="302" r="4" fill="#ffffff"/>
  <text x="763" y="308" font-family="'Outfit','Inter',system-ui,sans-serif" font-size="17" font-weight="700" fill="#ffffff">Fact-Vault</text>
  <text x="738" y="350" font-family="'Inter',system-ui,sans-serif" font-size="13" fill="#a1a1aa">Extract high-entropy, citation-ready facts. Store</text>
  <text x="738" y="367" font-family="'Inter',system-ui,sans-serif" font-size="13" fill="#a1a1aa">the specific, non-obvious data points that LLMs</text>
  <text x="738" y="384" font-family="'Inter',system-ui,sans-serif" font-size="13" fill="#a1a1aa">prioritise in RAG synthesis and direct answers.</text>
  <!-- UMAP cluster -->
  <rect x="738" y="398" width="544" height="175" rx="8" fill="#0d0d0f"/>
  <rect x="738" y="398" width="544" height="175" rx="8" fill="none" stroke="#3f3f46" stroke-width="1"/>
  <text x="750" y="415" font-family="'Inter',system-ui,sans-serif" font-size="10" fill="#52525b" letter-spacing="1.5">768-D LATENT SPACE — UMAP PROJECTION</text>
  <!-- Brand cluster (pink) -->
  <circle cx="870" cy="490" r="6" fill="#ec4899" opacity="0.9"/>
  <circle cx="888" cy="476" r="4.5" fill="#ec4899" opacity="0.8"/>
  <circle cx="858" cy="505" r="4" fill="#ec4899" opacity="0.7"/>
  <circle cx="900" cy="492" r="3.5" fill="#ec4899" opacity="0.7"/>
  <circle cx="876" cy="463" r="3" fill="#ec4899" opacity="0.6"/>
  <circle cx="848" cy="480" r="3" fill="#ec4899" opacity="0.6"/>
  <circle cx="912" cy="500" r="2.5" fill="#ec4899" opacity="0.5"/>
  <text x="918" y="484" font-family="'Inter',system-ui,sans-serif" font-size="11" fill="#ec4899" font-weight="600">Your Brand</text>
  <!-- Trust cluster (white) -->
  <circle cx="1010" cy="450" r="4" fill="#d4d4d8" opacity="0.5"/>
  <circle cx="1026" cy="442" r="3" fill="#d4d4d8" opacity="0.4"/>
  <circle cx="1000" cy="461" r="2.5" fill="#d4d4d8" opacity="0.4"/>
  <text x="1034" y="447" font-family="'Inter',system-ui,sans-serif" font-size="10" fill="#71717a">"Trust"</text>
  <!-- Competitors (gray) -->
  <circle cx="965" cy="535" r="3" fill="#71717a" opacity="0.5"/>
  <circle cx="982" cy="542" r="2.5" fill="#71717a" opacity="0.4"/>
  <circle cx="952" cy="548" r="2" fill="#71717a" opacity="0.4"/>
  <text x="988" y="546" font-family="'Inter',system-ui,sans-serif" font-size="10" fill="#52525b">Competitors</text>
  <line x1="885" y1="490" x2="1008" y2="452" stroke="#ec4899" stroke-width="1" opacity="0.18" stroke-dasharray="4,3"/>

  <!-- Arrow -->
  <line x1="1010" y1="592" x2="1010" y2="618" stroke="#ec4899" stroke-width="2" opacity="0.6"/>
  <polygon points="1004,616 1010,630 1016,616" fill="#ec4899" opacity="0.7"/>

  <!-- Card: Content Scorer  y=638 h=222 -->
  <rect x="720" y="638" width="580" height="222" rx="12" fill="#1c1c1f" stroke="#ffffff" stroke-width="1.5" filter="url(#card-glow)"/>
  <rect x="717" y="635" width="586" height="228" rx="14" fill="none" stroke="#ec4899" stroke-width="2.5" opacity="0.65"/>
  <rect x="720" y="638" width="580" height="46" rx="12" fill="#252528"/>
  <rect x="720" y="664" width="580" height="20" fill="#252528"/>
  <circle cx="745" cy="662" r="8" fill="#ec4899" opacity="0.85"/><circle cx="745" cy="662" r="4" fill="#ffffff"/>
  <text x="763" y="668" font-family="'Outfit','Inter',system-ui,sans-serif" font-size="17" font-weight="700" fill="#ffffff">Content Scorer</text>
  <text x="738" y="710" font-family="'Inter',system-ui,sans-serif" font-size="13" fill="#a1a1aa">Analyse every piece of content for AI-readability.</text>
  <text x="738" y="727" font-family="'Inter',system-ui,sans-serif" font-size="13" fill="#a1a1aa">Receive direct semantic fixes that increase citation</text>
  <text x="738" y="744" font-family="'Inter',system-ui,sans-serif" font-size="13" fill="#a1a1aa">likelihood across all major LLM architectures.</text>
  <rect x="738" y="760" width="104" height="26" rx="5" fill="#ec4899" opacity="0.12"/>
  <rect x="738" y="760" width="104" height="26" rx="5" fill="none" stroke="#ec4899" stroke-width="1" opacity="0.5"/>
  <text x="756" y="777" font-family="'Inter',system-ui,sans-serif" font-size="12" font-weight="700" fill="#ec4899">AI Score: 84</text>
  <rect x="852" y="760" width="200" height="26" rx="5" fill="#27272a"/>
  <rect x="852" y="760" width="168" height="26" rx="5" fill="#ec4899" opacity="0.5"/>

  <!-- Arrow -->
  <line x1="1010" y1="864" x2="1010" y2="890" stroke="#ec4899" stroke-width="2" opacity="0.6"/>
  <polygon points="1004,888 1010,902 1016,888" fill="#ec4899" opacity="0.7"/>

  <!-- Card: Edge & Schema  y=910 h=222 -->
  <rect x="720" y="910" width="580" height="222" rx="12" fill="#1c1c1f" stroke="#ffffff" stroke-width="1.5" filter="url(#card-glow)"/>
  <rect x="717" y="907" width="586" height="228" rx="14" fill="none" stroke="#ec4899" stroke-width="2.5" opacity="0.65"/>
  <rect x="720" y="910" width="580" height="46" rx="12" fill="#252528"/>
  <rect x="720" y="936" width="580" height="20" fill="#252528"/>
  <circle cx="745" cy="934" r="8" fill="#ec4899" opacity="0.85"/><circle cx="745" cy="934" r="4" fill="#ffffff"/>
  <text x="763" y="940" font-family="'Outfit','Inter',system-ui,sans-serif" font-size="17" font-weight="700" fill="#ffffff">Edge &amp; Schema</text>
  <text x="738" y="982" font-family="'Inter',system-ui,sans-serif" font-size="13" fill="#a1a1aa">Generate JSON-LD Cite-Magnet structured data and</text>
  <text x="738" y="999" font-family="'Inter',system-ui,sans-serif" font-size="13" fill="#a1a1aa">ontology markers so every AI engine reaches the</text>
  <text x="738" y="1016" font-family="'Inter',system-ui,sans-serif" font-size="13" fill="#a1a1aa">same deterministic conclusion about your authority.</text>
  <!-- JSON-LD snippet -->
  <rect x="738" y="1032" width="310" height="88" rx="6" fill="#09090b"/>
  <rect x="738" y="1032" width="310" height="88" rx="6" fill="none" stroke="#3f3f46" stroke-width="1"/>
  <text x="750" y="1050" font-family="'JetBrains Mono',monospace" font-size="10" fill="#71717a">{"@context":"schema.org",</text>
  <text x="750" y="1065" font-family="'JetBrains Mono',monospace" font-size="10" fill="#ec4899"> "@type": "Brand",</text>
  <text x="750" y="1080" font-family="'JetBrains Mono',monospace" font-size="10" fill="#d4d4d8"> "name": "YourBrand",</text>
  <text x="750" y="1095" font-family="'JetBrains Mono',monospace" font-size="10" fill="#71717a"> "citeMagnet": true }</text>

  <!-- ═══════════════════════════════════════════════
       PHASE 3 — DEPLOY  x=1360 w=620
  ═══════════════════════════════════════════════ -->
  <rect x="1360" y="135" width="620" height="1285" rx="16" fill="url(#phase-bg)" stroke="#ffffff" stroke-width="1.5" filter="url(#card-glow)"/>
  <rect x="1357" y="132" width="626" height="1291" rx="18" fill="none" stroke="#ec4899" stroke-width="2.5" opacity="0.7"/>
  <rect x="1360" y="135" width="620" height="118" rx="16" fill="#1e1e21"/>
  <rect x="1360" y="223" width="620" height="30" fill="#1e1e21"/>
  <text x="1392" y="185" font-family="'Outfit','Inter',system-ui,sans-serif" font-size="50" font-weight="800" fill="#ec4899" opacity="0.25">03</text>
  <!-- Satellite icon -->
  <g transform="translate(1848,177)">
    <path d="M-18,14 Q-4,-26 22,-8" fill="none" stroke="#ec4899" stroke-width="2.5"/>
    <path d="M-8,18 Q2,-16 14,2" fill="none" stroke="#ec4899" stroke-width="2" opacity="0.7"/>
    <circle cx="-16" cy="16" r="4.5" fill="#ec4899"/>
    <path d="M12,-22 Q30,-10 28,12" fill="none" stroke="#ec4899" stroke-width="1.5" opacity="0.6"/>
    <path d="M16,-30 Q38,-14 35,16" fill="none" stroke="#ec4899" stroke-width="1.5" opacity="0.3"/>
    <circle cx="30" cy="0" r="3.5" fill="#ec4899" opacity="0.8"/>
  </g>
  <text x="1392" y="222" font-family="'Outfit','Inter',system-ui,sans-serif" font-size="19" font-weight="700" fill="#ffffff" letter-spacing="0.5">DEPLOY: Seed the AI Ecosystem</text>
  <line x1="1380" y1="268" x2="1960" y2="268" stroke="#ec4899" stroke-width="0.8" opacity="0.25"/>

  <!-- Card: Multi-Agent Crawler  y=278 h=490 -->
  <rect x="1380" y="278" width="580" height="490" rx="12" fill="#1c1c1f" stroke="#ffffff" stroke-width="1.5" filter="url(#card-glow)"/>
  <rect x="1377" y="275" width="586" height="496" rx="14" fill="none" stroke="#ec4899" stroke-width="2.5" opacity="0.65"/>
  <rect x="1380" y="278" width="580" height="46" rx="12" fill="#252528"/>
  <rect x="1380" y="304" width="580" height="20" fill="#252528"/>
  <circle cx="1405" cy="302" r="8" fill="#ec4899" opacity="0.85"/><circle cx="1405" cy="302" r="4" fill="#ffffff"/>
  <text x="1423" y="308" font-family="'Outfit','Inter',system-ui,sans-serif" font-size="17" font-weight="700" fill="#ffffff">Multi-Agent Crawler</text>
  <text x="1398" y="350" font-family="'Inter',system-ui,sans-serif" font-size="13" fill="#a1a1aa">Trained on your Fact-Vault, autonomous agents</text>
  <text x="1398" y="367" font-family="'Inter',system-ui,sans-serif" font-size="13" fill="#a1a1aa">distribute your high-entropy facts across the</text>
  <text x="1398" y="384" font-family="'Inter',system-ui,sans-serif" font-size="13" fill="#a1a1aa">omnichannel web: Reddit, LinkedIn, Quora, forums.</text>
  <!-- Agent network diagram -->
  <rect x="1398" y="400" width="544" height="200" rx="8" fill="#0d0d0f"/>
  <rect x="1398" y="400" width="544" height="200" rx="8" fill="none" stroke="#3f3f46" stroke-width="1"/>
  <text x="1410" y="417" font-family="'Inter',system-ui,sans-serif" font-size="10" fill="#52525b" letter-spacing="1.5">AGENT DEPLOYMENT NETWORK</text>
  <!-- Central vault node -->
  <circle cx="1670" cy="500" r="20" fill="#be185d" opacity="0.25"/>
  <circle cx="1670" cy="500" r="14" fill="#ec4899" opacity="0.6"/>
  <text x="1670" y="504" text-anchor="middle" font-family="'Inter',system-ui,sans-serif" font-size="8" font-weight="700" fill="#ffffff">VAULT</text>
  <!-- Platform spokes -->
  <line x1="1670" y1="500" x2="1565" y2="448" stroke="#ec4899" stroke-width="1.5" opacity="0.45" stroke-dasharray="5,3"/>
  <circle cx="1559" cy="445" r="9" fill="#27272a" stroke="#ec4899" stroke-width="1.5"/>
  <text x="1522" y="436" font-family="'Inter',system-ui,sans-serif" font-size="11" fill="#a1a1aa">Reddit</text>
  <line x1="1670" y1="500" x2="1775" y2="448" stroke="#ec4899" stroke-width="1.5" opacity="0.45" stroke-dasharray="5,3"/>
  <circle cx="1781" cy="445" r="9" fill="#27272a" stroke="#ec4899" stroke-width="1.5"/>
  <text x="1793" y="436" font-family="'Inter',system-ui,sans-serif" font-size="11" fill="#a1a1aa">LinkedIn</text>
  <line x1="1670" y1="500" x2="1565" y2="552" stroke="#ec4899" stroke-width="1.5" opacity="0.45" stroke-dasharray="5,3"/>
  <circle cx="1559" cy="555" r="9" fill="#27272a" stroke="#ec4899" stroke-width="1.5"/>
  <text x="1522" y="568" font-family="'Inter',system-ui,sans-serif" font-size="11" fill="#a1a1aa">Quora</text>
  <line x1="1670" y1="500" x2="1775" y2="552" stroke="#ec4899" stroke-width="1.5" opacity="0.45" stroke-dasharray="5,3"/>
  <circle cx="1781" cy="555" r="9" fill="#27272a" stroke="#ec4899" stroke-width="1.5"/>
  <text x="1793" y="568" font-family="'Inter',system-ui,sans-serif" font-size="11" fill="#a1a1aa">Forums</text>
  <rect x="1398" y="614" width="180" height="26" rx="6" fill="#ec4899" opacity="0.1"/>
  <rect x="1398" y="614" width="180" height="26" rx="6" fill="none" stroke="#ec4899" stroke-width="1" opacity="0.4"/>
  <text x="1415" y="631" font-family="'Inter',system-ui,sans-serif" font-size="11" font-weight="600" fill="#ec4899">12 Agents Active ●</text>
  <rect x="1590" y="614" width="240" height="26" rx="6" fill="#1c1c1f"/>
  <text x="1602" y="631" font-family="'Inter',system-ui,sans-serif" font-size="11" fill="#71717a">Fact injection rate: 847/day</text>

  <!-- Arrow -->
  <line x1="1670" y1="772" x2="1670" y2="798" stroke="#ec4899" stroke-width="2" opacity="0.6"/>
  <polygon points="1664,796 1670,810 1676,796" fill="#ec4899" opacity="0.7"/>

  <!-- Card: SOV Simulator  y=818 h=490 -->
  <rect x="1380" y="818" width="580" height="490" rx="12" fill="#1c1c1f" stroke="#ffffff" stroke-width="1.5" filter="url(#card-glow)"/>
  <rect x="1377" y="815" width="586" height="496" rx="14" fill="none" stroke="#ec4899" stroke-width="2.5" opacity="0.65"/>
  <rect x="1380" y="818" width="580" height="46" rx="12" fill="#252528"/>
  <rect x="1380" y="844" width="580" height="20" fill="#252528"/>
  <circle cx="1405" cy="842" r="8" fill="#be185d" opacity="0.85"/><circle cx="1405" cy="842" r="4" fill="#ffffff"/>
  <text x="1423" y="848" font-family="'Outfit','Inter',system-ui,sans-serif" font-size="17" font-weight="700" fill="#ffffff">SOV Simulator</text>
  <text x="1398" y="890" font-family="'Inter',system-ui,sans-serif" font-size="13" fill="#a1a1aa">Fire live high-intent queries at ChatGPT, Claude,</text>
  <text x="1398" y="907" font-family="'Inter',system-ui,sans-serif" font-size="13" fill="#a1a1aa">Gemini and Perplexity simultaneously. Verify your</text>
  <text x="1398" y="924" font-family="'Inter',system-ui,sans-serif" font-size="13" fill="#a1a1aa">facts are cited before publishing live content.</text>
  <!-- Query results -->
  <rect x="1398" y="940" width="544" height="220" rx="8" fill="#0d0d0f"/>
  <rect x="1398" y="940" width="544" height="220" rx="8" fill="none" stroke="#3f3f46" stroke-width="1"/>
  <text x="1410" y="957" font-family="'Inter',system-ui,sans-serif" font-size="10" fill="#52525b" letter-spacing="1.5">LIVE QUERY RESULTS</text>
  <rect x="1410" y="964" width="520" height="34" rx="5" fill="#1a1a1d"/>
  <text x="1422" y="985" font-family="'Inter',system-ui,sans-serif" font-size="12" fill="#d4d4d8">ChatGPT-4o</text>
  <rect x="1510" y="970" width="240" height="20" rx="3" fill="#27272a"/><rect x="1510" y="970" width="168" height="20" rx="3" fill="#ec4899" opacity="0.55"/>
  <text x="1760" y="984" font-family="'Inter',system-ui,sans-serif" font-size="11" fill="#86efac">CITED ✓</text>
  <rect x="1410" y="1003" width="520" height="34" rx="5" fill="#1a1a1d"/>
  <text x="1422" y="1024" font-family="'Inter',system-ui,sans-serif" font-size="12" fill="#d4d4d8">Claude Sonnet</text>
  <rect x="1510" y="1009" width="240" height="20" rx="3" fill="#27272a"/><rect x="1510" y="1009" width="195" height="20" rx="3" fill="#ec4899" opacity="0.65"/>
  <text x="1760" y="1023" font-family="'Inter',system-ui,sans-serif" font-size="11" fill="#86efac">CITED ✓</text>
  <rect x="1410" y="1042" width="520" height="34" rx="5" fill="#1a1a1d"/>
  <text x="1422" y="1063" font-family="'Inter',system-ui,sans-serif" font-size="12" fill="#d4d4d8">Gemini 2.0</text>
  <rect x="1510" y="1048" width="240" height="20" rx="3" fill="#27272a"/><rect x="1510" y="1048" width="126" height="20" rx="3" fill="#ec4899" opacity="0.4"/>
  <text x="1760" y="1062" font-family="'Inter',system-ui,sans-serif" font-size="11" fill="#fbbf24">PARTIAL</text>
  <rect x="1410" y="1081" width="520" height="34" rx="5" fill="#1a1a1d"/>
  <text x="1422" y="1102" font-family="'Inter',system-ui,sans-serif" font-size="12" fill="#d4d4d8">Perplexity</text>
  <rect x="1510" y="1087" width="240" height="20" rx="3" fill="#27272a"/><rect x="1510" y="1087" width="185" height="20" rx="3" fill="#ec4899" opacity="0.58"/>
  <text x="1760" y="1101" font-family="'Inter',system-ui,sans-serif" font-size="11" fill="#86efac">CITED ✓</text>
  <!-- Overall score -->
  <rect x="1410" y="1120" width="520" height="32" rx="5" fill="#ec4899" opacity="0.08"/>
  <text x="1422" y="1140" font-family="'Inter',system-ui,sans-serif" font-size="12" font-weight="600" fill="#ec4899">Overall Citation Rate: 87.5% — Ready to Publish</text>

  <!-- ═══════════════════════════════════════════════
       PHASE 4 — MONITOR  x=2020 w=620
  ═══════════════════════════════════════════════ -->
  <rect x="2020" y="135" width="620" height="1285" rx="16" fill="url(#phase-bg)" stroke="#ffffff" stroke-width="1.5" filter="url(#card-glow)"/>
  <rect x="2017" y="132" width="626" height="1291" rx="18" fill="none" stroke="#ec4899" stroke-width="2.5" opacity="0.7"/>
  <rect x="2020" y="135" width="620" height="118" rx="16" fill="#1e1e21"/>
  <rect x="2020" y="223" width="620" height="30" fill="#1e1e21"/>
  <text x="2052" y="185" font-family="'Outfit','Inter',system-ui,sans-serif" font-size="50" font-weight="800" fill="#ec4899" opacity="0.25">04</text>
  <!-- Shield + Eye icon -->
  <g transform="translate(2510,177)">
    <path d="M0,-32 L26,-22 L26,-2 Q26,18 0,30 Q-26,18 -26,-2 L-26,-22 Z" fill="#ec4899" opacity="0.12" stroke="#ec4899" stroke-width="2"/>
    <ellipse cx="0" cy="0" rx="14" ry="9" fill="none" stroke="#ffffff" stroke-width="1.5"/>
    <circle cx="0" cy="0" r="5" fill="#ec4899"/>
    <circle cx="0" cy="0" r="2" fill="#ffffff"/>
  </g>
  <text x="2052" y="222" font-family="'Outfit','Inter',system-ui,sans-serif" font-size="19" font-weight="700" fill="#ffffff" letter-spacing="0.5">MONITOR: Defend &amp; Optimise</text>
  <line x1="2040" y1="268" x2="2620" y2="268" stroke="#ec4899" stroke-width="0.8" opacity="0.25"/>

  <!-- Card: Consensus Platform Monitor  y=278 h=310 -->
  <rect x="2040" y="278" width="580" height="310" rx="12" fill="#1c1c1f" stroke="#ffffff" stroke-width="1.5" filter="url(#card-glow)"/>
  <rect x="2037" y="275" width="586" height="316" rx="14" fill="none" stroke="#ec4899" stroke-width="2.5" opacity="0.65"/>
  <rect x="2040" y="278" width="580" height="46" rx="12" fill="#252528"/>
  <rect x="2040" y="304" width="580" height="20" fill="#252528"/>
  <circle cx="2065" cy="302" r="8" fill="#ec4899" opacity="0.85"/><circle cx="2065" cy="302" r="4" fill="#ffffff"/>
  <text x="2083" y="308" font-family="'Outfit','Inter',system-ui,sans-serif" font-size="17" font-weight="700" fill="#ffffff">Consensus Platform Monitor</text>
  <text x="2058" y="350" font-family="'Inter',system-ui,sans-serif" font-size="13" fill="#a1a1aa">Scan Reddit, Quora and forums for Context Poisoning</text>
  <text x="2058" y="367" font-family="'Inter',system-ui,sans-serif" font-size="13" fill="#a1a1aa">— false data entering the next LLM training run.</text>
  <text x="2058" y="384" font-family="'Inter',system-ui,sans-serif" font-size="13" fill="#a1a1aa">Surface and deploy neutralisation strategies.</text>
  <!-- Alerts -->
  <rect x="2058" y="400" width="544" height="175" rx="8" fill="#0d0d0f"/>
  <rect x="2058" y="400" width="544" height="175" rx="8" fill="none" stroke="#3f3f46" stroke-width="1"/>
  <text x="2070" y="417" font-family="'Inter',system-ui,sans-serif" font-size="10" fill="#52525b" letter-spacing="1.5">CONTEXT POISONING ALERTS</text>
  <rect x="2070" y="424" width="520" height="32" rx="4" fill="#be185d" opacity="0.07"/>
  <rect x="2070" y="424" width="4" height="32" fill="#ec4899"/>
  <text x="2082" y="438" font-family="'Inter',system-ui,sans-serif" font-size="12" fill="#f87171">● HIGH  </text>
  <text x="2132" y="438" font-family="'Inter',system-ui,sans-serif" font-size="12" fill="#a1a1aa">reddit.com — misinformation detected</text>
  <text x="2082" y="451" font-family="'Inter',system-ui,sans-serif" font-size="10" fill="#6b7280">4h ago · Neutralisation recommended</text>
  <rect x="2070" y="461" width="520" height="32" rx="4" fill="#78350f" opacity="0.12"/>
  <rect x="2070" y="461" width="4" height="32" fill="#f59e0b" opacity="0.8"/>
  <text x="2082" y="475" font-family="'Inter',system-ui,sans-serif" font-size="12" fill="#fbbf24">● MED  </text>
  <text x="2130" y="475" font-family="'Inter',system-ui,sans-serif" font-size="12" fill="#a1a1aa">quora.com — stale competitor data</text>
  <text x="2082" y="488" font-family="'Inter',system-ui,sans-serif" font-size="10" fill="#6b7280">2d ago · Monitor active</text>
  <rect x="2070" y="498" width="520" height="32" rx="4" fill="#1a1a1d"/>
  <rect x="2070" y="498" width="4" height="32" fill="#22c55e" opacity="0.8"/>
  <text x="2082" y="512" font-family="'Inter',system-ui,sans-serif" font-size="12" fill="#86efac">● CLEAR </text>
  <text x="2142" y="512" font-family="'Inter',system-ui,sans-serif" font-size="12" fill="#a1a1aa">LinkedIn — 3 cite-magnets indexed ✓</text>
  <text x="2082" y="525" font-family="'Inter',system-ui,sans-serif" font-size="10" fill="#6b7280">1h ago</text>
  <rect x="2070" y="534" width="520" height="32" rx="4" fill="#1a1a1d"/>
  <rect x="2070" y="534" width="4" height="32" fill="#22c55e" opacity="0.8"/>
  <text x="2082" y="548" font-family="'Inter',system-ui,sans-serif" font-size="12" fill="#86efac">● CLEAR </text>
  <text x="2142" y="548" font-family="'Inter',system-ui,sans-serif" font-size="12" fill="#a1a1aa">Quora — brand facts dominant ✓</text>

  <!-- Arrow -->
  <line x1="2330" y1="592" x2="2330" y2="618" stroke="#ec4899" stroke-width="2" opacity="0.6"/>
  <polygon points="2324,616 2330,630 2336,616" fill="#ec4899" opacity="0.7"/>

  <!-- Card: GEO Pulse Index  y=638 h=222 -->
  <rect x="2040" y="638" width="580" height="222" rx="12" fill="#1c1c1f" stroke="#ffffff" stroke-width="1.5" filter="url(#card-glow)"/>
  <rect x="2037" y="635" width="586" height="228" rx="14" fill="none" stroke="#ec4899" stroke-width="2.5" opacity="0.65"/>
  <rect x="2040" y="638" width="580" height="46" rx="12" fill="#252528"/>
  <rect x="2040" y="664" width="580" height="20" fill="#252528"/>
  <circle cx="2065" cy="662" r="8" fill="#ec4899" opacity="0.85"/><circle cx="2065" cy="662" r="4" fill="#ffffff"/>
  <text x="2083" y="668" font-family="'Outfit','Inter',system-ui,sans-serif" font-size="17" font-weight="700" fill="#ffffff">GEO Pulse Index</text>
  <text x="2058" y="710" font-family="'Inter',system-ui,sans-serif" font-size="13" fill="#a1a1aa">Real-time brand sentiment benchmarking. Proprietary</text>
  <text x="2058" y="727" font-family="'Inter',system-ui,sans-serif" font-size="13" fill="#a1a1aa">Z-score analysis distinguishes generative noise from</text>
  <text x="2058" y="744" font-family="'Inter',system-ui,sans-serif" font-size="13" fill="#a1a1aa">genuine truth-drift so you act before damage spreads.</text>
  <!-- Pulse line -->
  <rect x="2058" y="760" width="544" height="84" rx="6" fill="#0d0d0f"/>
  <rect x="2058" y="760" width="544" height="84" rx="6" fill="none" stroke="#3f3f46" stroke-width="1"/>
  <line x1="2058" y1="802" x2="2602" y2="802" stroke="#3f3f46" stroke-width="0.5" opacity="0.5"/>
  <polyline points="2072,820 2112,808 2152,814 2192,798 2232,806 2272,788 2312,796 2352,778 2392,785 2432,770 2472,778 2512,762 2552,770 2582,758 2596,762" fill="none" stroke="#ec4899" stroke-width="2.5" stroke-linecap="round" stroke-linejoin="round"/>
  <circle cx="2352" cy="778" r="5" fill="#ec4899"/>
  <text x="2348" y="768" font-family="'Inter',system-ui,sans-serif" font-size="10" fill="#ec4899">+3.1σ</text>

  <!-- Arrow -->
  <line x1="2330" y1="864" x2="2330" y2="890" stroke="#ec4899" stroke-width="2" opacity="0.6"/>
  <polygon points="2324,888 2330,902 2336,888" fill="#ec4899" opacity="0.7"/>

  <!-- Card: Audit Logs  y=910 h=222 -->
  <rect x="2040" y="910" width="580" height="222" rx="12" fill="#1c1c1f" stroke="#ffffff" stroke-width="1.5" filter="url(#card-glow)"/>
  <rect x="2037" y="907" width="586" height="228" rx="14" fill="none" stroke="#ec4899" stroke-width="2.5" opacity="0.65"/>
  <rect x="2040" y="910" width="580" height="46" rx="12" fill="#252528"/>
  <rect x="2040" y="936" width="580" height="20" fill="#252528"/>
  <circle cx="2065" cy="934" r="8" fill="#ec4899" opacity="0.85"/><circle cx="2065" cy="934" r="4" fill="#ffffff"/>
  <text x="2083" y="940" font-family="'Outfit','Inter',system-ui,sans-serif" font-size="17" font-weight="700" fill="#ffffff">Audit Logs</text>
  <text x="2058" y="982" font-family="'Inter',system-ui,sans-serif" font-size="13" fill="#a1a1aa">Full audit trail of every GEO action, SOV delta and</text>
  <text x="2058" y="999" font-family="'Inter',system-ui,sans-serif" font-size="13" fill="#a1a1aa">model response shift. Immutable record for</text>
  <text x="2058" y="1016" font-family="'Inter',system-ui,sans-serif" font-size="13" fill="#a1a1aa">compliance, analysis and future model training.</text>
  <!-- Log lines -->
  <rect x="2058" y="1032" width="544" height="88" rx="6" fill="#09090b"/>
  <rect x="2058" y="1032" width="544" height="88" rx="6" fill="none" stroke="#3f3f46" stroke-width="1"/>
  <text x="2070" y="1050" font-family="'JetBrains Mono',monospace" font-size="10.5" fill="#71717a">14:22  SOV_AUDIT     delta +4.2%</text>
  <text x="2070" y="1065" font-family="'JetBrains Mono',monospace" font-size="10.5" fill="#ec4899">14:18  DRIFT_ALERT   z=3.1 ↑</text>
  <text x="2070" y="1080" font-family="'JetBrains Mono',monospace" font-size="10.5" fill="#71717a">14:05  FACTS_SEEDED  12 facts</text>
  <text x="2070" y="1095" font-family="'JetBrains Mono',monospace" font-size="10.5" fill="#71717a">13:55  SCHEMA_GEN    8 entities</text>
  <text x="2070" y="1110" font-family="'JetBrains Mono',monospace" font-size="10.5" fill="#86efac">13:42  CITATION_CONFIRMED ✓</text>

  <!-- ═══════════════════════════════════════════════
       PHASE ARROWS (horizontal between columns)
  ═══════════════════════════════════════════════ -->
  <!-- 1→2 -->
  <line x1="662" y1="760" x2="693" y2="760" stroke="#ec4899" stroke-width="3.5" opacity="0.9"/>
  <polygon points="690,753 706,760 690,767" fill="#ec4899"/>
  <circle cx="671" cy="760" r="4" fill="#ec4899" opacity="0.5"/>
  <!-- 2→3 -->
  <line x1="1322" y1="760" x2="1353" y2="760" stroke="#ec4899" stroke-width="3.5" opacity="0.9"/>
  <polygon points="1350,753 1366,760 1350,767" fill="#ec4899"/>
  <circle cx="1331" cy="760" r="4" fill="#ec4899" opacity="0.5"/>
  <!-- 3→4 -->
  <line x1="1982" y1="760" x2="2013" y2="760" stroke="#ec4899" stroke-width="3.5" opacity="0.9"/>
  <polygon points="2010,753 2026,760 2010,767" fill="#ec4899"/>
  <circle cx="1991" cy="760" r="4" fill="#ec4899" opacity="0.5"/>
  <!-- 4→outcome -->
  <line x1="2642" y1="760" x2="2673" y2="760" stroke="#ec4899" stroke-width="3.5" opacity="0.9"/>
  <polygon points="2670,753 2686,760 2670,767" fill="#ec4899"/>

  <!-- ═══════════════════════════════════════════════
       OUTCOME NODE  cx=2920 cy=760
  ═══════════════════════════════════════════════ -->
  <!-- Ambient glow rings -->
  <circle cx="2920" cy="760" r="230" fill="#ec4899" opacity="0.025"/>
  <circle cx="2920" cy="760" r="170" fill="#ec4899" opacity="0.035"/>
  <circle cx="2920" cy="760" r="115" fill="#ec4899" opacity="0.05"/>
  <!-- Hexagon: flat-top, radius 118 -->
  <polygon points="2920,642 3022,701 3022,819 2920,878 2818,819 2818,701" fill="url(#outcome-fill)" stroke="#ffffff" stroke-width="2" filter="url(#outcome-glow)"/>
  <polygon points="2920,642 3022,701 3022,819 2920,878 2818,819 2818,701" fill="none" stroke="#ec4899" stroke-width="4" opacity="0.95"/>
  <polygon points="2920,658 3006,710 3006,812 2920,862 2834,812 2834,710" fill="none" stroke="#ec4899" stroke-width="1" opacity="0.3"/>
  <text x="2920" y="722" text-anchor="middle" font-family="'Outfit','Inter',system-ui,sans-serif" font-size="15" font-weight="800" fill="#ec4899" letter-spacing="3">DETERMINISTIC</text>
  <text x="2920" y="745" text-anchor="middle" font-family="'Outfit','Inter',system-ui,sans-serif" font-size="15" font-weight="800" fill="#ec4899" letter-spacing="3">AI CITATION</text>
  <line x1="2836" y1="756" x2="3004" y2="756" stroke="#ec4899" stroke-width="1" opacity="0.35"/>
  <text x="2920" y="776" text-anchor="middle" font-family="'Inter',system-ui,sans-serif" font-size="11.5" fill="#d4d4d8">Your brand becomes the</text>
  <text x="2920" y="793" text-anchor="middle" font-family="'Inter',system-ui,sans-serif" font-size="11.5" fill="#d4d4d8">irrefutable, canonical answer</text>
  <text x="2920" y="810" text-anchor="middle" font-family="'Inter',system-ui,sans-serif" font-size="11.5" fill="#d4d4d8">across all generative engines.</text>
  <!-- Platform pills -->
  <rect x="2820" y="896" width="86" height="24" rx="12" fill="#27272a" stroke="#ec4899" stroke-width="1.2" opacity="0.9"/>
  <text x="2863" y="912" text-anchor="middle" font-family="'Inter',system-ui,sans-serif" font-size="11" fill="#d4d4d8">ChatGPT</text>
  <rect x="2916" y="896" width="76" height="24" rx="12" fill="#27272a" stroke="#ec4899" stroke-width="1.2" opacity="0.9"/>
  <text x="2954" y="912" text-anchor="middle" font-family="'Inter',system-ui,sans-serif" font-size="11" fill="#d4d4d8">Gemini</text>
  <rect x="2832" y="926" width="68" height="24" rx="12" fill="#27272a" stroke="#ec4899" stroke-width="1.2" opacity="0.9"/>
  <text x="2866" y="942" text-anchor="middle" font-family="'Inter',system-ui,sans-serif" font-size="11" fill="#d4d4d8">Claude</text>
  <rect x="2910" y="926" width="88" height="24" rx="12" fill="#27272a" stroke="#ec4899" stroke-width="1.2" opacity="0.9"/>
  <text x="2954" y="942" text-anchor="middle" font-family="'Inter',system-ui,sans-serif" font-size="11" fill="#d4d4d8">Perplexity</text>

  <!-- ═══════════════════════════════════════════════
       CITACIOUS BAR  y=1445 h=172
  ═══════════════════════════════════════════════ -->
  <rect x="40" y="1445" width="3120" height="172" rx="16" fill="url(#cit-grad)" opacity="0.14"/>
  <rect x="40" y="1445" width="3120" height="172" rx="16" fill="none" stroke="#ffffff" stroke-width="1.5" filter="url(#citacious-glow)"/>
  <rect x="37" y="1442" width="3126" height="178" rx="18" fill="none" stroke="#ec4899" stroke-width="3" opacity="0.85"/>
  <!-- Neural thread -->
  <g opacity="0.18" stroke="#ec4899" stroke-width="0.8">
    <line x1="40" y1="1531" x2="3160" y2="1531"/>
    <circle cx="350" cy="1531" r="3" fill="#ec4899"/><circle cx="700" cy="1531" r="3" fill="#ec4899"/>
    <circle cx="1050" cy="1531" r="3" fill="#ec4899"/><circle cx="1400" cy="1531" r="3" fill="#ec4899"/>
    <circle cx="1750" cy="1531" r="3" fill="#ec4899"/><circle cx="2100" cy="1531" r="3" fill="#ec4899"/>
    <circle cx="2450" cy="1531" r="3" fill="#ec4899"/><circle cx="2800" cy="1531" r="3" fill="#ec4899"/>
    <line x1="350" y1="1531" x2="350" y2="1510"/><line x1="700" y1="1531" x2="700" y2="1510"/>
    <line x1="1050" y1="1531" x2="1050" y2="1510"/><line x1="1400" y1="1531" x2="1400" y2="1510"/>
    <line x1="1750" y1="1531" x2="1750" y2="1510"/><line x1="2100" y1="1531" x2="2100" y2="1510"/>
    <line x1="2450" y1="1531" x2="2450" y2="1510"/><line x1="2800" y1="1531" x2="2800" y2="1510"/>
  </g>
  <!-- Phase labels in bar -->
  <rect x="90" y="1452" width="110" height="18" rx="9" fill="#ec4899" opacity="0.15"/>
  <text x="145" y="1465" text-anchor="middle" font-family="'Inter',system-ui,sans-serif" font-size="10" fill="#ec4899" letter-spacing="1.5">01 AUDIT</text>
  <rect x="750" y="1452" width="110" height="18" rx="9" fill="#ec4899" opacity="0.15"/>
  <text x="805" y="1465" text-anchor="middle" font-family="'Inter',system-ui,sans-serif" font-size="10" fill="#ec4899" letter-spacing="1.5">02 BUILD</text>
  <rect x="1410" y="1452" width="120" height="18" rx="9" fill="#ec4899" opacity="0.15"/>
  <text x="1470" y="1465" text-anchor="middle" font-family="'Inter',system-ui,sans-serif" font-size="10" fill="#ec4899" letter-spacing="1.5">03 DEPLOY</text>
  <rect x="2070" y="1452" width="126" height="18" rx="9" fill="#ec4899" opacity="0.15"/>
  <text x="2133" y="1465" text-anchor="middle" font-family="'Inter',system-ui,sans-serif" font-size="10" fill="#ec4899" letter-spacing="1.5">04 MONITOR</text>
  <!-- Main text -->
  <text x="1600" y="1497" text-anchor="middle" font-family="'Outfit','Inter',system-ui,sans-serif" font-size="34" font-weight="800" fill="#ec4899" letter-spacing="6" filter="url(#citacious-glow)">CITACIOUS</text>
  <text x="1600" y="1530" text-anchor="middle" font-family="'Outfit','Inter',system-ui,sans-serif" font-size="17" font-weight="600" fill="#ffffff" letter-spacing="2">Your AI GEO Analyst</text>
  <text x="1600" y="1555" text-anchor="middle" font-family="'Inter',system-ui,sans-serif" font-size="13.5" fill="#a1a1aa" letter-spacing="1">Orchestrates, Analyses &amp; Advises Across Every Phase</text>

  <!-- ═══ FOOTER ═══ -->
  <text x="1600" y="1680" text-anchor="middle" font-family="'Inter',system-ui,sans-serif" font-size="13" fill="#3f3f46" letter-spacing="3">AUSPEXI.COM — GENERATIVE ENGINE OPTIMIZATION PLATFORM</text>
  <circle cx="1446" cy="1680" r="2" fill="#ec4899" opacity="0.35"/>
  <circle cx="1754" cy="1680" r="2" fill="#ec4899" opacity="0.35"/>
</svg>
